<svg xmlns="http://www.w3.org/2000/svg" width="1024" height="1024" viewBox="0 0 1024 1024"><defs><radialGradient id="body" cx=".35" cy=".2" r=".95"><stop offset="0" stop-color="#F6EEDF" stop-opacity="1"/><stop offset=".35" stop-color="#DFD2BE" stop-opacity="1"/><stop offset=".7" stop-color="#E6DCCB" stop-opacity="1"/><stop offset="1" stop-color="#B4A48B" stop-opacity="1"/></radialGradient><linearGradient id="muscle" x1="0" y1="0" x2="1" y2="1"><stop offset="0" stop-color="#FFFAF0" stop-opacity="0.7"/><stop offset=".55" stop-color="#EFE4D2" stop-opacity="0.22"/><stop offset="1" stop-color="#80715E" stop-opacity="0.16"/></linearGradient><linearGradient id="crease" x1="0" y1="0" x2="1" y2="1"><stop offset="0" stop-color="#887863" stop-opacity="0.27"/><stop offset="1" stop-color="#AE9E85" stop-opacity="0"/></linearGradient></defs><g id="02-body" transform="translate(4 56) scale(.72)"><path d="M 376,441 C 451,380 552,329 665,297 C 704,320 731,370 740,421 C 750,454 765,496 775,544 C 790,588 785,638 797,702 C 850,726 896,771 916,826 C 928,855 930,884 950,910 C 1007,934 1041,984 1059,1036 L 1105,1138 C 1143,1145 1171,1170 1176,1205 Q 1180,1235 1158,1237 L 1047,1236 Q 1005,1232 1003,1205 L 1005,1167 C 974,1124 948,1097 916,1071 C 878,1043 854,1008 838,981 C 776,968 704,925 674,872 L 651,838 C 607,865 552,882 502,878 C 462,879 426,868 402,852 C 425,881 439,916 444,953 C 449,994 452,1024 464,1072 L 464,1092 C 481,1111 490,1134 485,1155 Q 483,1168 466,1168 L 250,1168 Q 224,1167 230,1149 C 240,1114 281,1100 328,1080 C 325,1040 311,1006 296,972 C 274,933 260,894 254,857 C 233,831 234,797 247,774 C 269,741 313,720 353,704 C 399,677 442,675 489,681 L 507,650 C 460,625 432,595 414,560 C 378,533 353,484 376,441 Z" fill="url(#body)" /><path d="M 408,417 C 458,381 506,363 539,369 C 582,372 626,403 637,440 C 643,460 629,485 608,491 C 566,497 530,463 497,445 C 463,426 433,418 408,417 Z" fill="url(#muscle)" /><path d="M 573,349 L 660,312 C 693,339 714,374 722,409 C 729,435 717,454 697,453 C 669,451 654,427 639,403 C 621,377 597,359 573,349 Z" fill="url(#muscle)" /><path d="M 645,456 C 658,477 667,507 672,538 C 677,572 672,604 663,627 C 641,612 625,582 619,551 C 615,518 625,487 645,456 Z" fill="url(#muscle)" /><path d="M 684,458 C 707,458 724,469 729,490 L 754,577 C 759,601 752,619 738,630 C 710,589 695,535 684,458 Z" fill="url(#crease)" /><path d="M 501,661 C 545,670 585,696 613,730 C 639,717 664,693 683,663 C 681,724 659,783 636,821 C 614,813 603,788 588,764 C 565,723 535,687 501,661 Z" fill="url(#muscle)" /><path d="M 267,769 C 335,707 423,684 492,700 C 544,712 576,748 575,784 C 544,819 491,840 443,834 C 397,829 369,807 345,788 C 320,771 291,766 267,769 Z" fill="url(#muscle)" /><path d="M 281,864 C 308,840 344,840 368,861 C 406,894 423,945 425,987 C 426,1023 438,1050 447,1082 C 414,1071 391,1052 381,1016 C 366,962 316,927 281,864 Z" fill="url(#muscle)" /><path d="M 749,723 C 789,722 839,759 865,802 C 889,842 903,877 909,904 C 885,925 857,923 834,902 C 781,857 750,792 749,723 Z" fill="url(#muscle)" /><path d="M 935,947 C 974,953 1009,994 1024,1035 L 1072,1140 C 1051,1141 1030,1132 1018,1117 C 1007,1063 968,1003 935,947 Z" fill="url(#muscle)" /><path d="M 873,920 C 890,901 921,901 940,919 C 958,938 951,965 930,977 C 900,977 879,955 873,920 Z M 260,1138 C 302,1103 382,1092 432,1106 C 416,1130 371,1143 323,1144 Z M 1034,1194 C 1041,1162 1071,1151 1100,1160 C 1130,1166 1151,1184 1157,1202 C 1119,1213 1077,1208 1034,1194 Z" fill="url(#muscle)" /></g></svg>
